<?xml version="1.0" encoding="us-ascii" standalone="no"?><svg xmlns="http://www.w3.org/2000/svg" xmlns:xlink="http://www.w3.org/1999/xlink" contentStyleType="text/css" height="220px" preserveAspectRatio="none" style="width:652px;height:220px;background:#FFFFFF;" version="1.1" viewBox="0 0 652 220" width="652px" zoomAndPan="magnify"><defs/><g><rect fill="#F1F1F1" height="40" rx="12.5" ry="12.5" style="stroke:#181818;stroke-width:0.5;" width="117" x="61.5" y="40.3564"/><text fill="#000000" font-family="sans-serif" font-size="14" lengthAdjust="spacing" textLength="107" x="66.5" y="66.085">Listing Itineraries</text><rect fill="#F1F1F1" height="40" rx="12.5" ry="12.5" style="stroke:#181818;stroke-width:0.5;" width="119" x="220.5" y="174.3564"/><text fill="#000000" font-family="sans-serif" font-size="14" lengthAdjust="spacing" textLength="109" x="225.5" y="200.085">Creating Itinerary</text><rect fill="#F1F1F1" height="40" rx="12.5" ry="12.5" style="stroke:#181818;stroke-width:0.5;" width="130" x="306" y="40.3564"/><text fill="#000000" font-family="sans-serif" font-size="14" lengthAdjust="spacing" textLength="120" x="311" y="66.085">Displaying itinerary</text><rect fill="#F1F1F1" height="40" rx="12.5" ry="12.5" style="stroke:#181818;stroke-width:0.5;" width="116" x="530" y="40.3564"/><text fill="#000000" font-family="sans-serif" font-size="14" lengthAdjust="spacing" textLength="106" x="535" y="66.085">Editing time slots</text><ellipse cx="16" cy="60.3564" fill="#222222" rx="10" ry="10" style="stroke:#222222;stroke-width:1.0;"/><ellipse cx="423" cy="194.3564" fill="none" rx="11" ry="11" style="stroke:#222222;stroke-width:1.0;"/><ellipse cx="423" cy="194.3564" fill="#222222" rx="6" ry="6" style="stroke:#222222;stroke-width:1.0;"/><!--link *start* to ListingItineraries--><g id="link_*start*_ListingItineraries"><path d="M26.16,60.3564 C37.89,60.3564 43.62,60.3564 55.35,60.3564 " fill="none" id="*start*-to-ListingItineraries" style="stroke:#181818;stroke-width:1.0;"/><polygon fill="#181818" points="61.35,60.3564,52.35,56.3564,56.35,60.3564,52.35,64.3564,61.35,60.3564" style="stroke:#181818;stroke-width:1.0;"/></g><!--link ListingItineraries to CreatingItinerary--><g id="link_ListingItineraries_CreatingItinerary"><path d="M143.27,80.5464 C173.69,105.6464 222.0321,145.5278 252.3421,170.5378 " fill="none" id="ListingItineraries-to-CreatingItinerary" style="stroke:#181818;stroke-width:1.0;"/><polygon fill="#181818" points="256.97,174.3564,252.5739,165.5431,253.1134,171.1742,247.4823,171.7137,256.97,174.3564" style="stroke:#181818;stroke-width:1.0;"/><text fill="#000000" font-family="sans-serif" font-size="13" lengthAdjust="spacing" textLength="42" x="226.5" y="124.8516">needed</text><text fill="#000000" font-family="sans-serif" font-size="13" lengthAdjust="spacing" textLength="53" x="221" y="141.2031">not found</text></g><!--link ListingItineraries to DisplayingItinerary--><g id="link_ListingItineraries_DisplayingItinerary"><path d="M178.53,60.3564 C216.63,60.3564 260.37,60.3564 299.74,60.3564 " fill="none" id="ListingItineraries-to-DisplayingItinerary" style="stroke:#181818;stroke-width:1.0;"/><polygon fill="#181818" points="305.74,60.3564,296.74,56.3564,300.74,60.3564,296.74,64.3564,305.74,60.3564" style="stroke:#181818;stroke-width:1.0;"/><text fill="#000000" font-family="sans-serif" font-size="13" lengthAdjust="spacing" textLength="91" x="196.75" y="53.8516">existing chosen</text></g><!--reverse link DisplayingItinerary to CreatingItinerary--><g id="link_DisplayingItinerary_CreatingItinerary"><path d="M354.3639,85.4859 C337.1039,110.5159 310.51,149.1064 293.25,174.1364 " fill="none" id="DisplayingItinerary-backto-CreatingItinerary" style="stroke:#181818;stroke-width:1.0;"/><polygon fill="#181818" points="357.77,80.5464,349.3678,85.6849,354.9316,84.6627,355.9538,90.2264,357.77,80.5464" style="stroke:#181818;stroke-width:1.0;"/><text fill="#000000" font-family="sans-serif" font-size="13" lengthAdjust="spacing" textLength="43" x="338" y="132.8516">created</text></g><!--link DisplayingItinerary to EditingTimeSlots--><g id="link_DisplayingItinerary_EditingTimeSlots"><path d="M436.11,60.3564 C465.94,60.3564 495.02,60.3564 523.95,60.3564 " fill="none" id="DisplayingItinerary-to-EditingTimeSlots" style="stroke:#181818;stroke-width:1.0;"/><polygon fill="#181818" points="529.95,60.3564,520.95,56.3564,524.95,60.3564,520.95,64.3564,529.95,60.3564" style="stroke:#181818;stroke-width:1.0;"/><text fill="#000000" font-family="sans-serif" font-size="13" lengthAdjust="spacing" textLength="56" x="455.5" y="20.8516">change in</text><text fill="#000000" font-family="sans-serif" font-size="13" lengthAdjust="spacing" textLength="57" x="454.5" y="37.2031">time slots</text><text fill="#000000" font-family="sans-serif" font-size="13" lengthAdjust="spacing" textLength="42" x="469.5" y="53.5547">equired</text></g><!--link DisplayingItinerary to *end*--><g id="link_DisplayingItinerary_*end*"><path d="M378.56,80.5464 C389.88,109.2964 408.6194,156.8646 417.0994,178.3746 " fill="none" id="DisplayingItinerary-to-*end*" style="stroke:#181818;stroke-width:1.0;"/><polygon fill="#181818" points="419.3,183.9564,419.7204,174.1166,417.4662,179.3049,412.2779,177.0507,419.3,183.9564" style="stroke:#181818;stroke-width:1.0;"/><text fill="#000000" font-family="sans-serif" font-size="13" lengthAdjust="spacing" textLength="46" x="404" y="124.8516">itinerary</text><text fill="#000000" font-family="sans-serif" font-size="13" lengthAdjust="spacing" textLength="32" x="411" y="141.2031">ready</text></g><!--link EditingTimeSlots to *end*--><g id="link_EditingTimeSlots_*end*"><path d="M564.01,80.5464 C526.47,110.5864 460.3154,163.5085 436.0754,182.8985 " fill="none" id="EditingTimeSlots-to-*end*" style="stroke:#181818;stroke-width:1.0;"/><polygon fill="#181818" points="431.39,186.6464,440.9167,184.1481,435.2945,183.5232,435.9195,177.9009,431.39,186.6464" style="stroke:#181818;stroke-width:1.0;"/><text fill="#000000" font-family="sans-serif" font-size="13" lengthAdjust="spacing" textLength="46" x="526" y="124.8516">itinerary</text><text fill="#000000" font-family="sans-serif" font-size="13" lengthAdjust="spacing" textLength="32" x="533" y="141.2031">ready</text></g><!--SRC=[VP6n3i8m34JtV8N5YDGVO6011YGss2X3L9lM4ZWbIINwzoIbfK0AIuRBlTpPgHW9w5hx5f1SORdsR4Gvhpt1RCVEivIm3ITPRPdS3BI3Nd-J1s9bINyWRGSCyaiT_6jszKMtaU0FOhn8c0ro5-7vIk0knZzBzV8XgFieAgMEynDaDbjE5Kubo31Oawgm0252mbp4U3YRHd2IZa4JjGDFztwHHMKSYKepikOdN4GpePgwxJA_1uzCfQKaOCbbt59kwTQm_VLK73ukR37-H2uX6rkL9FmnFm00]--></g></svg>